# Blender 4.1.1
# www.blender.org
mtllib tie.mtl
o Tie
v -0.077417 -0.276134 0.000000
v -0.077417 -0.525477 0.000000
v 0.077417 -0.276134 0.000000
v 0.077417 -0.525477 0.000000
v -0.077417 -0.276134 -0.483141
v -0.077417 -0.359741 -0.629243
v 0.077417 -0.276134 -0.483141
v 0.077417 -0.359741 -0.629243
v -0.077417 0.032104 -0.629243
v 0.077417 0.032104 -0.629243
v 0.077417 -0.029179 -0.629243
v -0.077417 -0.029179 -0.629243
v -0.077417 -0.359741 -0.629243
v 0.077417 -0.359741 -0.629243
v 0.077417 -0.029179 -0.629243
v -0.077417 -0.029179 -0.629243
v -0.077417 -0.029179 -0.761571
v -0.077417 0.032104 -0.761571
v 0.077417 0.032104 -0.761571
v 0.077417 -0.029179 -0.761571
v -0.077417 -0.029179 -0.483141
v 0.077417 -0.029179 -0.483141
v -0.077417 -0.017825 -0.483141
v -0.077417 0.031818 -0.532519
v 0.077417 0.031818 -0.532519
v 0.077417 -0.017825 -0.483141
v -0.077417 -0.276134 -0.156662
v 0.077417 -0.523648 -0.156662
v -0.077417 -0.523648 -0.156662
v 0.077417 -0.276134 -0.156662
v -0.077417 -0.276134 0.483141
v -0.077417 -0.359741 0.629243
v 0.077417 -0.276134 0.483141
v 0.077417 -0.359741 0.629243
v -0.077417 0.032104 0.629243
v 0.077417 0.032104 0.629243
v 0.077417 -0.029179 0.629243
v -0.077417 -0.029179 0.629243
v -0.077417 -0.359741 0.629243
v 0.077417 -0.359741 0.629243
v 0.077417 -0.029179 0.629243
v -0.077417 -0.029179 0.629243
v -0.077417 -0.029179 0.761571
v -0.077417 0.032104 0.761571
v 0.077417 0.032104 0.761571
v 0.077417 -0.029179 0.761571
v -0.077417 -0.029179 0.483141
v 0.077417 -0.029179 0.483141
v -0.077417 -0.017825 0.483141
v -0.077417 0.031818 0.532519
v 0.077417 0.031818 0.532519
v 0.077417 -0.017825 0.483141
v -0.077417 -0.276134 0.156662
v 0.077417 -0.523648 0.156662
v -0.077417 -0.523648 0.156662
v 0.077417 -0.276134 0.156662
vn 1.0000 -0.0000 -0.0000
vn -0.0000 1.0000 -0.0000
vn -0.0000 -0.9999 -0.0117
vn -0.0000 -0.0000 -1.0000
vn -0.0000 -0.0000 1.0000
vn -1.0000 -0.0000 -0.0000
vn -0.0000 -1.0000 -0.0000
vn -0.0000 1.0000 0.0030
vn -0.0000 0.7052 0.7090
vn -0.0000 -0.9448 -0.3277
vn -0.0000 -0.9999 0.0117
vn -0.0000 1.0000 -0.0030
vn -0.0000 0.7052 -0.7090
vn -0.0000 -0.9448 0.3277
vt 0.375000 0.708333
vt 0.375000 0.750000
vt 0.625000 0.750000
vt 0.625000 0.708333
vt 0.125000 0.708333
vt 0.125000 0.750000
vt 0.875000 0.750000
vt 0.875000 0.708333
vt 0.625000 0.583333
vt 0.625000 0.625000
vt 0.875000 0.625000
vt 0.875000 0.583333
vt 0.125000 0.625000
vt 0.125000 0.666667
vt 0.375000 0.666667
vt 0.375000 0.625000
vt 0.625000 0.666667
vt 0.375000 0.041667
vt 0.375000 0.083333
vt 0.625000 0.083333
vt 0.625000 0.041667
vt 0.125000 0.612203
vt 0.375000 0.612203
vt 0.125000 0.500000
vt 0.375000 0.500000
vt 0.875000 0.666667
vt 0.000000 0.000000
vt 0.625000 0.125000
vt 0.625000 0.166667
vt 0.494583 0.583333
vt 0.375000 0.612203
vt 0.375000 0.125000
vt 0.125000 0.543472
vt 0.375000 0.543472
vt 0.375000 0.137797
vt 0.494583 0.166667
vt 0.375000 0.000000
vt 0.625000 0.000000
s 0
usemtl Remap1_DarkEdge_NoAO
f 30/1/1 3/2/1 4/3/1 28/4/1
f 27/5/2 1/6/2 3/2/2 30/1/2
f 28/4/3 4/3/3 2/7/3 29/8/3
f 19/9/4 20/10/4 17/11/4 18/12/4
f 21/13/5 5/14/5 7/15/5 22/16/5
f 22/16/1 7/15/1 8/17/1 11/10/1
f 27/18/6 5/19/6 6/20/6 29/21/6
f 23/22/5 21/13/5 22/16/5 26/23/5
f 9/24/2 10/25/2 19/25/2 18/24/2
f 15/10/4 14/17/4 13/26/4 16/11/4
f 11/27/7 12/27/7 17/27/7 20/27/7
f 10/9/1 11/10/1 20/10/1 19/9/1
f 12/28/6 9/29/6 18/29/6 17/28/6
f 10/9/1 25/30/1 26/31/1 22/16/1 11/10/1
f 5/19/6 21/32/6 12/28/6 6/20/6
f 9/24/8 24/33/8 25/34/8 10/25/8
f 25/34/9 24/33/9 23/22/9 26/23/9
f 21/32/6 23/35/6 24/36/6 9/29/6 12/28/6
f 1/37/6 27/18/6 29/21/6 2/38/6
f 8/17/10 28/4/10 29/8/10 6/26/10
f 5/14/2 27/5/2 30/1/2 7/15/2
f 7/15/1 30/1/1 28/4/1 8/17/1
f 56/1/1 54/4/1 4/3/1 3/2/1
f 53/5/2 56/1/2 3/2/2 1/6/2
f 54/4/11 55/8/11 2/7/11 4/3/11
f 45/9/5 44/12/5 43/11/5 46/10/5
f 47/13/4 48/16/4 33/15/4 31/14/4
f 48/16/1 37/10/1 34/17/1 33/15/1
f 53/18/6 55/21/6 32/20/6 31/19/6
f 49/22/4 52/23/4 48/16/4 47/13/4
f 35/24/2 44/24/2 45/25/2 36/25/2
f 41/10/5 42/11/5 39/26/5 40/17/5
f 37/27/7 46/27/7 43/27/7 38/27/7
f 36/9/1 45/9/1 46/10/1 37/10/1
f 38/28/6 43/28/6 44/29/6 35/29/6
f 36/9/1 37/10/1 48/16/1 52/31/1 51/30/1
f 31/19/6 32/20/6 38/28/6 47/32/6
f 35/24/12 36/25/12 51/34/12 50/33/12
f 51/34/13 52/23/13 49/22/13 50/33/13
f 47/32/6 38/28/6 35/29/6 50/36/6 49/35/6
f 1/37/6 2/38/6 55/21/6 53/18/6
f 34/17/14 32/26/14 55/8/14 54/4/14
f 31/14/2 33/15/2 56/1/2 53/5/2
f 33/15/1 34/17/1 54/4/1 56/1/1
